%TF.GenerationSoftware,KiCad,Pcbnew,9.0.1*%
%TF.CreationDate,2025-04-28T16:37:28-06:00*%
%TF.ProjectId,Now were talkin,4e6f7720-7765-4726-9520-74616c6b696e,rev?*%
%TF.SameCoordinates,Original*%
%TF.FileFunction,Copper,L2,Bot*%
%TF.FilePolarity,Positive*%
%FSLAX46Y46*%
G04 Gerber Fmt 4.6, Leading zero omitted, Abs format (unit mm)*
G04 Created by KiCad (PCBNEW 9.0.1) date 2025-04-28 16:37:28*
%MOMM*%
%LPD*%
G01*
G04 APERTURE LIST*
%TA.AperFunction,ComponentPad*%
%ADD10R,1.800000X1.800000*%
%TD*%
%TA.AperFunction,ComponentPad*%
%ADD11C,1.800000*%
%TD*%
%TA.AperFunction,ComponentPad*%
%ADD12R,1.700000X1.700000*%
%TD*%
%TA.AperFunction,ComponentPad*%
%ADD13C,1.700000*%
%TD*%
%TA.AperFunction,ComponentPad*%
%ADD14C,2.000000*%
%TD*%
%TA.AperFunction,SMDPad,CuDef*%
%ADD15R,5.080000X1.270000*%
%TD*%
%TA.AperFunction,SMDPad,CuDef*%
%ADD16C,17.800000*%
%TD*%
%TA.AperFunction,ComponentPad*%
%ADD17C,1.600000*%
%TD*%
%TA.AperFunction,ComponentPad*%
%ADD18O,1.600000X1.600000*%
%TD*%
%TA.AperFunction,ViaPad*%
%ADD19C,5.500000*%
%TD*%
%TA.AperFunction,Conductor*%
%ADD20C,0.200000*%
%TD*%
G04 APERTURE END LIST*
D10*
%TO.P,D3,1,K*%
%TO.N,Net-(D3-K)*%
X140924867Y-108110290D03*
D11*
%TO.P,D3,2,A*%
%TO.N,Net-(BT2-+)*%
X140924867Y-105570290D03*
%TD*%
D10*
%TO.P,D4,1,K*%
%TO.N,Net-(D4-K)*%
X168632356Y-168204690D03*
D11*
%TO.P,D4,2,A*%
%TO.N,Net-(BT2-+)*%
X171172356Y-168204690D03*
%TD*%
D12*
%TO.P,M2,1,+*%
%TO.N,Net-(BT2-+)*%
X166072711Y-92718134D03*
D13*
%TO.P,M2,2,-*%
%TO.N,Net-(M2--)*%
X163532711Y-92718134D03*
%TD*%
D14*
%TO.P,SW2,1,1*%
%TO.N,Net-(R4-Pad2)*%
X172468314Y-152449588D03*
X178968314Y-152449588D03*
%TO.P,SW2,2,2*%
%TO.N,Net-(BT2--)*%
X172468314Y-147949588D03*
X178968314Y-147949588D03*
%TD*%
D15*
%TO.P,BT2,1,+*%
%TO.N,Net-(BT2-+)*%
X201572711Y-95733134D03*
X201572711Y-117703134D03*
D16*
%TO.P,BT2,2,-*%
%TO.N,Net-(BT2--)*%
X201572711Y-106718134D03*
%TD*%
D17*
%TO.P,R6,1*%
%TO.N,Net-(R4-Pad2)*%
X179280878Y-155733415D03*
D18*
%TO.P,R6,2*%
%TO.N,Net-(M2--)*%
X171660878Y-155733415D03*
%TD*%
D17*
%TO.P,R5,1*%
%TO.N,Net-(D4-K)*%
X167500000Y-155659275D03*
D18*
%TO.P,R5,2*%
%TO.N,Net-(R4-Pad2)*%
X167500000Y-148039275D03*
%TD*%
D17*
%TO.P,R4,1*%
%TO.N,Net-(D3-K)*%
X164500000Y-155659275D03*
D18*
%TO.P,R4,2*%
%TO.N,Net-(R4-Pad2)*%
X164500000Y-148039275D03*
%TD*%
D19*
%TO.N,*%
X169274652Y-85718134D03*
%TD*%
D20*
%TO.N,Net-(M2--)*%
X170000000Y-154072537D02*
X171660878Y-155733415D01*
X178500000Y-135500000D02*
X170000000Y-144000000D01*
X178500000Y-108014522D02*
X178500000Y-135500000D01*
X164520711Y-94035234D02*
X178500000Y-108014522D01*
X164520711Y-94020711D02*
X164520711Y-94035234D01*
X163532711Y-93032711D02*
X164520711Y-94020711D01*
X163532711Y-92718134D02*
X163532711Y-93032711D01*
X170000000Y-144000000D02*
X170000000Y-154072537D01*
%TO.N,Net-(BT2--)*%
X178526289Y-107473711D02*
X178968314Y-107915737D01*
X178968314Y-107915737D02*
X178968314Y-147949588D01*
X201572711Y-106718134D02*
X182374711Y-106718134D01*
X167223711Y-91567134D02*
X164921711Y-91567134D01*
X164921711Y-93869134D02*
X178526289Y-107473711D01*
X164921711Y-91567134D02*
X164921711Y-93869134D01*
X182374711Y-106718134D02*
X167223711Y-91567134D01*
%TO.N,Net-(BT2-+)*%
X181000000Y-158377046D02*
X181000000Y-121234728D01*
X201572711Y-117703134D02*
X201557711Y-117718134D01*
X201275845Y-118000000D02*
X201572711Y-117703134D01*
X166072711Y-92718134D02*
X166072711Y-93427289D01*
X210773711Y-111242134D02*
X204312711Y-117703134D01*
X210773711Y-102906955D02*
X210773711Y-111242134D01*
X203599890Y-95733134D02*
X201572711Y-95733134D01*
X166072711Y-92718134D02*
X184234728Y-110880151D01*
X181000000Y-121234728D02*
X184234728Y-118000000D01*
X204312711Y-117703134D02*
X201572711Y-117703134D01*
X210773711Y-102906955D02*
X203599890Y-95733134D01*
X171214457Y-168162589D02*
X181000000Y-158377046D01*
X184234728Y-118000000D02*
X201275845Y-118000000D01*
X184234728Y-110880151D02*
X184234728Y-118000000D01*
%TD*%
M02*
